<?xml version="1.0" encoding="UTF-8"?>
<svg width="121px" height="52px" viewBox="0 0 121 52" version="1.1" xmlns="http://www.w3.org/2000/svg" xmlns:xlink="http://www.w3.org/1999/xlink">
    <title>logo-colori</title>
    <g id="Page-1" stroke="none" stroke-width="1" fill="none" fill-rule="evenodd">
        <g id="logo-colori" fill-rule="nonzero">
            <path d="M72.22,17.24 C71.37,17.24 70.64,17.58 70,18.22 C69.33,18.83 68.99,19.56 68.99,20.41 C68.99,21.26 69.33,22.02 70,22.7 C70.64,23.34 71.37,23.64 72.22,23.64 C73.13,23.64 73.9,23.34 74.47,22.7 C75.11,22.09 75.41,21.33 75.41,20.41 C75.41,19.56 75.11,18.83 74.47,18.22 C73.89,17.58 73.13,17.24 72.22,17.24" id="Path" fill="#34B088"></path>
            <path d="M92.54,18.22 C91.9,17.58 91.14,17.24 90.25,17.24 C89.36,17.24 88.64,17.58 88.03,18.22 C87.39,18.83 87.05,19.56 87.05,20.41 C87.05,21.26 87.39,22.02 88.03,22.7 C88.64,23.34 89.37,23.64 90.25,23.64 C91.13,23.64 91.9,23.34 92.54,22.7 C93.18,22.06 93.45,21.33 93.45,20.41 C93.45,19.56 93.15,18.83 92.54,18.22" id="Path" fill="#34B088"></path>
            <path d="M17.79,17.24 C16.94,17.24 16.18,17.58 15.54,18.22 C14.87,18.83 14.53,19.56 14.53,20.41 C14.53,21.26 14.87,22.02 15.54,22.7 C16.18,23.34 16.94,23.64 17.79,23.64 C18.7,23.64 19.44,23.34 20.01,22.7 C20.65,22.09 20.99,21.33 20.99,20.41 C20.99,19.56 20.65,18.83 20.01,18.22 C19.43,17.58 18.7,17.24 17.79,17.24" id="Path" fill="#34B088"></path>
            <path d="M54.45,36.65 C54.45,35.28 54.79,34.21 55.46,33.45 C56.16,32.66 57.07,32.26 58.2,32.26 C59.42,32.26 60.39,32.66 61.09,33.45 C61.76,34.21 62.1,35.28 62.1,36.65 C62.1,38.02 61.76,39.12 61.09,39.85 C60.42,40.61 59.48,41.01 58.26,41.01 C57.04,41.01 56.16,40.61 55.46,39.85 C54.79,39.12 54.45,38.05 54.45,36.65 M59.63,28.64 C58.59,28.64 57.62,28.88 56.74,29.37 C55.95,29.89 55.19,30.68 54.45,31.72 C54.48,31.32 54.54,30.87 54.6,30.38 C54.63,29.92 54.63,29.47 54.63,28.98 L54.63,20.39 L50.46,20.39 L50.46,44.28 L54.7,44.28 L54.7,42.12 C55.28,43.06 56.01,43.77 56.86,44.25 C57.68,44.65 58.72,44.83 59.91,44.83 C61.89,44.83 63.48,44.1 64.69,42.64 C65.94,41.15 66.55,39.2 66.55,36.76 C66.55,34.2 65.94,32.22 64.72,30.79 C63.5,29.36 61.79,28.66 59.63,28.66 L59.63,28.64 Z" id="Shape" fill="#768383"></path>
            <polyline id="Path" fill="#34B088" points="31.45 32.57 31.45 29.12 29.31 29.12 29.31 24.13 24.99 24.13 24.99 29.12 22.85 29.12 22.85 32.57 24.99 32.57 24.99 44.27 29.31 44.27 29.31 32.57 31.45 32.57"></polyline>
            <path d="M36.9,29.13 L31.81,29.13 L37.9,43.09 L34.61,51.13 L39.45,51.13 L48.47,29.13 L43.47,29.13 L41.18,35.86 C40.97,36.5 40.78,37.14 40.57,37.72 C40.42,38.3 40.3,38.85 40.2,39.37 C40.11,38.73 40.05,38.12 39.96,37.57 C39.84,36.99 39.69,36.47 39.5,36.08 L36.88,29.13" id="Path" fill="#34B088"></path>
            <rect id="Rectangle" fill="#34B088" x="15.6" y="29.13" width="4.36" height="15.14"></rect>
            <path d="M8.53,32.48 C9.23,32.48 9.87,32.63 10.48,32.91 C11.06,33.18 11.61,33.55 12.06,34.01 L12.12,29.56 C11.54,29.26 10.93,29.04 10.26,28.89 C9.62,28.74 8.92,28.65 8.1,28.65 C5.72,28.65 3.77,29.41 2.25,30.9 C0.76,32.39 0,34.31 0,36.66 C0,39.01 0.73,41.08 2.22,42.6 C3.77,44.09 5.72,44.82 8.07,44.82 C8.86,44.82 9.59,44.76 10.23,44.64 C10.87,44.43 11.48,44.15 12.12,43.79 L12.06,39.22 C11.6,39.8 11.08,40.2 10.57,40.44 C9.99,40.71 9.35,40.84 8.62,40.84 C7.37,40.84 6.4,40.47 5.63,39.71 C4.84,38.95 4.44,37.94 4.44,36.66 C4.44,35.38 4.84,34.44 5.6,33.67 C6.36,32.88 7.34,32.48 8.53,32.48" id="Path" fill="#34B088"></path>
            <polyline id="Path" fill="#768383" points="95.37 32.57 97.48 32.57 97.48 44.27 101.8 44.27 101.8 32.57 103.91 32.57 103.91 29.12 101.8 29.12 101.8 24.13 97.48 24.13 97.48 29.12 95.37 29.12 95.37 32.57"></polyline>
            <path d="M113.66,35.86 C113.45,36.5 113.26,37.14 113.11,37.72 C112.9,38.3 112.77,38.85 112.68,39.37 C112.62,38.73 112.53,38.12 112.41,37.57 C112.32,36.99 112.17,36.47 112.01,36.08 L109.36,29.13 L104.33,29.13 L110.39,43.09 L107.1,51.13 L111.94,51.13 L120.99,29.13 L115.93,29.13 L113.64,35.86" id="Path" fill="#768383"></path>
            <rect id="Rectangle" fill="#768383" x="88.09" y="29.13" width="4.36" height="15.14"></rect>
            <rect id="Rectangle" fill="#768383" x="70.05" y="29.13" width="4.36" height="15.14"></rect>
            <rect id="Rectangle" fill="#768383" x="79.04" y="20.38" width="4.39" height="23.89"></rect>
            <path d="M80.72,6.46 C80.78,6.31 80.78,6.16 80.75,6 C80.72,5.85 80.6,5.73 80.45,5.7 L79.99,5.52 L80.02,5.52 C79.2,5.12 78.37,4.79 77.55,4.45 C77.4,4.39 77.25,4.39 77.09,4.48 C76.94,4.57 76.82,4.69 76.72,4.85 C76.63,5 76.63,5.15 76.69,5.31 C76.75,5.46 76.87,5.55 77.03,5.61 C77.85,5.95 78.64,6.28 79.44,6.65 L79.9,6.83 C80.05,6.86 80.2,6.86 80.36,6.8 C80.51,6.74 80.63,6.62 80.73,6.46" id="Path" fill="#3F4B4C" opacity="0.25"></path>
            <path d="M71.88,2.68 C71.7,2.65 71.54,2.65 71.42,2.74 C71.24,2.83 71.12,2.95 71.08,3.14 C71.02,3.29 71.02,3.44 71.08,3.6 C71.14,3.75 71.26,3.84 71.45,3.87 C72.39,4.08 73.34,4.36 74.25,4.63 C74.4,4.69 74.55,4.69 74.71,4.63 C74.86,4.54 74.98,4.42 75.05,4.26 C75.11,4.11 75.11,3.96 75.08,3.8 C74.99,3.65 74.9,3.53 74.74,3.5 C73.8,3.2 72.85,2.92 71.88,2.68" id="Path" fill="#3F4B4C" opacity="0.25"></path>
            <path d="M69.38,2.16 C69.41,1.98 69.41,1.82 69.35,1.67 C69.26,1.52 69.14,1.46 68.98,1.43 C67.97,1.22 66.97,1 65.96,0.85 C65.78,0.82 65.62,0.88 65.47,0.97 C65.32,1.06 65.2,1.21 65.17,1.4 C65.14,1.55 65.17,1.7 65.26,1.83 C65.35,1.98 65.47,2.04 65.66,2.07 C66.67,2.22 67.64,2.41 68.62,2.62 C68.77,2.65 68.92,2.62 69.08,2.53 C69.23,2.44 69.32,2.32 69.38,2.16" id="Path" fill="#3F4B4C" opacity="0.25"></path>
            <path d="M69.63,13.59 C69.78,13.68 69.93,13.68 70.09,13.59 C70.24,13.5 70.33,13.38 70.43,13.22 C70.52,13.07 70.52,12.92 70.46,12.76 C70.12,11.82 69.64,10.93 69,10.08 C68.91,9.96 68.79,9.9 68.63,9.87 C68.45,9.84 68.29,9.87 68.14,9.99 C67.99,10.08 67.9,10.23 67.87,10.42 C67.84,10.57 67.87,10.72 67.99,10.85 C68.54,11.64 68.97,12.46 69.3,13.29 C69.36,13.44 69.48,13.53 69.64,13.59" id="Path" fill="#3F4B4C" opacity="0.25"></path>
            <path d="M88.52,13.68 C88.58,13.83 88.67,13.92 88.82,13.95 C88.97,13.98 89.16,13.98 89.31,13.89 C89.46,13.8 89.55,13.65 89.61,13.49 C89.64,13.34 89.64,13.19 89.58,13.03 C89.12,12.18 88.51,11.35 87.78,10.59 C87.69,10.44 87.54,10.38 87.38,10.38 C87.2,10.38 87.04,10.44 86.92,10.59 C86.77,10.71 86.71,10.86 86.68,11.02 C86.65,11.17 86.71,11.32 86.83,11.45 C87.53,12.18 88.08,12.91 88.51,13.67" id="Path" fill="#3F4B4C" opacity="0.25"></path>
            <path d="M85.71,8.99 C85.71,8.81 85.65,8.69 85.5,8.59 C84.74,8.04 83.92,7.52 83,7.04 C82.88,6.95 82.73,6.92 82.54,6.98 C82.39,7.04 82.24,7.13 82.14,7.28 C82.05,7.43 82.02,7.58 82.05,7.74 C82.08,7.89 82.17,8.01 82.32,8.11 C83.2,8.63 84,9.12 84.7,9.6 C84.82,9.69 84.97,9.72 85.19,9.69 C85.34,9.66 85.49,9.57 85.59,9.42 C85.69,9.27 85.71,9.15 85.71,8.99" id="Path" fill="#3F4B4C" opacity="0.25"></path>
            <path d="M34.16,3.75 C34.07,3.87 34.04,4.02 34.07,4.21 C34.1,4.36 34.22,4.45 34.37,4.55 C34.49,4.64 34.64,4.64 34.83,4.58 C35.77,4.28 36.72,4 37.72,3.73 C37.87,3.7 38.02,3.61 38.15,3.46 C38.24,3.31 38.24,3.16 38.21,3 C38.18,2.85 38.12,2.73 38,2.63 C37.85,2.54 37.7,2.51 37.54,2.54 C36.5,2.81 35.5,3.12 34.55,3.42 C34.4,3.48 34.25,3.6 34.15,3.76" id="Path" fill="#3F4B4C" opacity="0.25"></path>
            <path d="M32.09,4.54 C31.94,4.45 31.79,4.45 31.63,4.54 C31.51,4.57 31.39,4.63 31.29,4.66 L31.26,4.66 C30.38,5.03 29.52,5.45 28.7,5.91 C28.55,5.97 28.43,6.09 28.4,6.25 C28.34,6.4 28.34,6.55 28.4,6.71 C28.46,6.86 28.55,6.98 28.7,7.05 C28.85,7.08 29.04,7.05 29.19,6.96 C29.95,6.56 30.77,6.17 31.63,5.8 C31.63,5.8 31.64,5.79 31.66,5.77 L31.93,5.68 C32.08,5.65 32.2,5.53 32.3,5.38 C32.39,5.23 32.39,5.08 32.36,4.92 C32.33,4.77 32.24,4.65 32.09,4.55" id="Path" fill="#3F4B4C" opacity="0.25"></path>
            <path d="M40.04,1.98 C40.04,2.13 40.13,2.25 40.28,2.35 C40.37,2.44 40.52,2.47 40.71,2.44 C41.72,2.23 42.72,2.07 43.73,1.92 C43.88,1.89 44.03,1.8 44.16,1.68 C44.28,1.53 44.34,1.38 44.34,1.22 C44.31,1.07 44.25,0.92 44.13,0.82 C44.01,0.73 43.86,0.7 43.7,0.73 C42.63,0.85 41.6,1.03 40.59,1.25 C40.41,1.28 40.25,1.37 40.16,1.52 C40.07,1.64 40.01,1.79 40.04,1.98" id="Path" fill="#3F4B4C" opacity="0.25"></path>
            <path d="M26.39,7.46 C26.24,7.43 26.09,7.49 25.93,7.61 C25.05,8.19 24.19,8.86 23.37,9.59 C23.22,9.71 23.16,9.86 23.13,10.02 C23.1,10.17 23.16,10.32 23.25,10.45 C23.34,10.57 23.49,10.63 23.65,10.63 C23.81,10.63 23.95,10.57 24.11,10.45 C24.87,9.78 25.69,9.14 26.58,8.56 C26.73,8.47 26.82,8.35 26.85,8.19 C26.88,8.01 26.85,7.85 26.76,7.73 C26.67,7.58 26.55,7.49 26.39,7.46" id="Path" fill="#3F4B4C" opacity="0.25"></path>
            <path d="M21.48,11.67 C21.3,11.7 21.14,11.76 21.02,11.91 C20.44,12.52 19.92,13.16 19.44,13.86 C19.35,14.01 19.29,14.16 19.32,14.32 C19.32,14.47 19.41,14.59 19.56,14.69 C19.68,14.78 19.83,14.81 19.99,14.78 C20.17,14.75 20.29,14.66 20.39,14.51 C20.91,13.87 21.4,13.23 21.91,12.65 C22.03,12.53 22.09,12.38 22.09,12.22 C22.09,12.04 22.03,11.88 21.91,11.79 C21.79,11.7 21.64,11.64 21.48,11.67" id="Path" fill="#3F4B4C" opacity="0.25"></path>
            <path d="M59.88,0.18 C59.73,0.18 59.58,0.24 59.42,0.33 C59.27,0.45 59.21,0.6 59.18,0.76 C59.15,0.91 59.18,1.06 59.27,1.22 C59.36,1.34 59.51,1.4 59.67,1.4 C60.71,1.49 61.71,1.58 62.69,1.67 C62.84,1.7 62.99,1.64 63.15,1.52 C63.27,1.43 63.36,1.28 63.39,1.12 C63.42,0.94 63.39,0.78 63.3,0.66 C63.21,0.54 63.09,0.48 62.93,0.45 C61.92,0.36 60.92,0.27 59.88,0.18" id="Path" fill="#3F4B4C" opacity="0.25"></path>
            <path d="M57.22,0.21 C57.1,0.09 56.95,0.03 56.79,0.03 C56.36,0.03 55.94,0.03 55.51,0 L53.47,0 C53.29,0 53.13,0.06 53.01,0.21 C52.89,0.3 52.83,0.45 52.8,0.64 C52.77,0.79 52.83,0.94 52.95,1.07 L52.98,1.1 C52.98,1.1 52.95,1.16 52.92,1.22 C52.86,1.37 52.86,1.52 52.95,1.68 C53.04,1.8 53.16,1.89 53.32,1.92 C54.26,2.1 55.21,2.35 56.15,2.65 C56.27,2.68 56.42,2.68 56.61,2.62 C56.76,2.53 56.85,2.41 56.91,2.25 C56.97,2.1 56.97,1.95 56.94,1.79 C56.85,1.64 56.76,1.52 56.6,1.49 C56.33,1.4 56.02,1.34 55.75,1.25 L56.63,1.25 C56.78,1.25 56.93,1.19 57.09,1.07 C57.24,0.98 57.3,0.83 57.33,0.67 C57.36,0.51 57.3,0.37 57.21,0.21" id="Path" fill="#3F4B4C" opacity="0.25"></path>
            <path d="M58.9,3.14 C58.75,3.17 58.63,3.29 58.56,3.44 C58.47,3.59 58.47,3.74 58.5,3.9 C58.53,4.05 58.65,4.17 58.8,4.27 C59.68,4.61 60.57,5.03 61.39,5.49 C61.54,5.58 61.69,5.58 61.88,5.52 C62.03,5.49 62.15,5.4 62.25,5.25 C62.34,5.1 62.37,4.95 62.34,4.79 C62.31,4.63 62.22,4.49 62.07,4.39 C61.19,3.93 60.3,3.54 59.36,3.14 C59.21,3.08 59.06,3.08 58.9,3.14" id="Path" fill="#3F4B4C" opacity="0.25"></path>
            <path d="M64.63,5.97 C64.48,5.88 64.33,5.88 64.17,5.91 C63.99,5.94 63.83,6.03 63.74,6.18 C63.65,6.33 63.59,6.48 63.62,6.64 C63.65,6.79 63.71,6.91 63.86,7.01 C64.68,7.56 65.38,8.14 66.02,8.78 C66.14,8.87 66.29,8.9 66.45,8.87 C66.63,8.87 66.79,8.81 66.91,8.72 C67.03,8.57 67.09,8.42 67.09,8.26 C67.09,8.1 67.03,7.96 66.94,7.86 C66.27,7.22 65.51,6.58 64.62,5.97" id="Path" fill="#3F4B4C" opacity="0.25"></path>
            <path d="M46.77,1.55 C47.71,1.46 48.69,1.37 49.7,1.31 L49.76,1.31 C49.97,1.34 50.16,1.37 50.34,1.4 C50.49,1.43 50.68,1.37 50.83,1.28 C50.98,1.16 51.07,1.01 51.1,0.85 C51.13,0.7 51.1,0.58 51.04,0.45 C51.01,0.36 50.98,0.27 50.89,0.21 C50.77,0.09 50.62,0.03 50.46,0.06 C50.25,0.06 50.06,0.06 49.88,0.09 L49.85,0.09 C48.78,0.15 47.78,0.24 46.77,0.33 C46.62,0.33 46.47,0.39 46.34,0.54 C46.22,0.66 46.16,0.81 46.16,0.97 C46.16,1.13 46.22,1.27 46.34,1.4 C46.43,1.49 46.58,1.55 46.77,1.55" id="Path" fill="#3F4B4C" opacity="0.25"></path>
        </g>
    </g>
</svg>